<svg width="40" height="50" viewBox="0 0 40 50" fill="none" xmlns="http://www.w3.org/2000/svg">
<path d="M38.8645 45.7031H36.3951V34.4151C37.3514 34.1061 38.0446 33.2159 38.0446 32.1683C38.0446 30.865 36.9724 29.8047 35.6545 29.8047H31.2062L29.0817 15.8145C28.5037 11.783 24.9083 8.37734 20.7408 8.1125V5.88457L25.6023 2.29912C26.0559 1.96465 26.2339 1.40537 26.0557 0.874316C25.8774 0.343164 25.3966 0 24.8308 0H20C19.591 0 19.2594 0.32793 19.2594 0.732422V8.11172C18.7832 8.14961 18.3106 8.22314 17.8479 8.3333C17.4502 8.42793 17.2054 8.82353 17.301 9.2167C17.3967 9.60996 17.7967 9.85176 18.1943 9.75752C18.783 9.61738 19.3905 9.54639 20 9.54639C21.8426 9.54639 23.6264 10.2009 25.0231 11.3894H14.9767C15.2851 11.1271 15.6161 10.8872 15.9682 10.6729C16.3166 10.461 16.4253 10.0099 16.2109 9.66533C15.9966 9.3208 15.5405 9.21338 15.192 9.42529C12.8791 10.8322 11.3214 13.161 10.9184 15.8146L8.79395 29.8048H4.34567C3.02786 29.8048 1.95564 30.865 1.95564 32.1684C1.95564 33.216 2.64866 34.1062 3.60505 34.4152V45.7031H1.13562C0.509449 45.7031 0 46.2069 0 46.8262V47.8027C0 49.0144 0.853789 50 1.9031 50H38.0969C39.1463 50 40 49.0144 40 47.8027V46.8262C40.0001 46.2069 39.4907 45.7031 38.8645 45.7031ZM20.7407 1.46484H24.2558L20.7407 4.05723V1.46484ZM27.6295 16.1164L28.0588 18.9432H26.7572C26.3482 18.9432 26.0166 19.2711 26.0166 19.6756C26.0166 20.0801 26.3482 20.408 26.7572 20.408H28.2812L29.0496 25.4677H27.7728C27.3638 25.4677 27.0322 25.7956 27.0322 26.2001C27.0322 26.6046 27.3638 26.9325 27.7728 26.9325H29.272L29.7082 29.8048H25.3044L24.9064 26.1489C24.9063 26.1482 24.9062 26.1476 24.9062 26.1469L23.8145 16.1165H27.6295V16.1164ZM22.7942 20.4307L23.3449 25.4904H16.6551L17.2058 20.4307H22.7942ZM17.3653 18.9658L17.6755 16.1164H22.3246L22.6348 18.9658H17.3653ZM23.5044 26.9553L23.8145 29.8048H16.1856L16.4958 26.9553H23.5044ZM13.6482 12.8541H26.3494C26.735 13.4098 27.0446 14.0141 27.2699 14.6516H22.9878C22.9867 14.6516 22.9857 14.6516 22.9847 14.6516H17.0149C17.0141 14.6516 17.0133 14.6516 17.0124 14.6516H12.7283C12.9539 14.012 13.2638 13.4081 13.6482 12.8541ZM10.7281 26.9325H12.2271C12.6361 26.9325 12.9677 26.6046 12.9677 26.2001C12.9677 25.7956 12.6361 25.4677 12.2271 25.4677H10.9505L11.7189 20.408H13.2184C13.6274 20.408 13.959 20.0801 13.959 19.6756C13.959 19.2711 13.6274 18.9432 13.2184 18.9432H11.9413L12.3706 16.1164H16.1856L15.0939 26.1468C15.0938 26.1475 15.0937 26.1481 15.0937 26.1488L14.6957 29.8047H10.2919L10.7281 26.9325ZM3.43688 32.1683C3.43688 31.6728 3.84452 31.2695 4.34567 31.2695H35.6545C36.1556 31.2695 36.5633 31.6727 36.5633 32.1683C36.5633 32.6639 36.1557 33.067 35.6545 33.067H26.8625C26.4534 33.067 26.1218 33.3949 26.1218 33.7994C26.1218 34.2039 26.4534 34.5318 26.8625 34.5318H27.6279V45.7031H24.3377V38.1491C24.3377 37.1457 23.5122 36.3293 22.4975 36.3293H17.5026C16.4879 36.3293 15.6624 37.1457 15.6624 38.1491V45.7031H12.3722V34.5318H23.9C24.309 34.5318 24.6406 34.2039 24.6406 33.7994C24.6406 33.3949 24.309 33.067 23.9 33.067H4.34567C3.84452 33.067 3.43688 32.6639 3.43688 32.1683ZM34.9138 34.5318V45.7031H33.0962V34.5318H34.9138ZM29.1091 42.8538V41.0563H31.615V42.8538H29.1091ZM31.6151 44.3187V45.7031H29.1092V44.3187H31.6151ZM29.1091 39.5915V37.794H31.615V39.5915H29.1091ZM29.1091 36.3293V34.5319H31.615V36.3293H29.1091ZM22.8565 38.1491V45.7031H17.1435V38.1491C17.1435 37.9534 17.3046 37.7941 17.5025 37.7941H22.4974C22.6954 37.7941 22.8565 37.9534 22.8565 38.1491ZM8.38503 42.8538V41.0563H10.8909V42.8538H8.38503ZM10.891 44.3187V45.7031H8.38512V44.3187H10.891ZM8.38503 39.5915V37.794H10.8909V39.5915H8.38503ZM8.38503 36.3293V34.5319H10.8909V36.3293H8.38503ZM6.90378 34.5318V45.7031H5.0862V34.5318H6.90378ZM38.5189 47.8027C38.5189 48.2498 38.269 48.5352 38.097 48.5352H1.9032C1.73118 48.5352 1.48134 48.2498 1.48134 47.8027V47.168H38.5189V47.8027Z" fill="#BE8553"/>
</svg>
