<svg width="66" height="60" viewBox="0 0 66 60" fill="none" xmlns="http://www.w3.org/2000/svg">
<path d="M64.1402 58.0892H62.0382V31.465H64.1402C64.4888 31.465 64.8098 31.275 64.9777 30.9693C65.1455 30.6636 65.1334 30.2907 64.9463 29.9966L57.8125 18.7864C57.6371 18.5107 57.3331 18.3438 57.0064 18.3438H38.039L33.5032 13.8082V10.0637H42.7389C43.0912 10.0637 43.4151 9.86981 43.5813 9.55911C43.7475 9.24854 43.7293 8.87146 43.5338 8.57834L41.8489 6.05096L43.5339 3.52357C43.7295 3.23045 43.7475 2.85338 43.5814 2.5428C43.4151 2.2321 43.0912 2.03822 42.7389 2.03822H33.5032V0.955414C33.5032 0.427771 33.0754 0 32.5478 0C32.0202 0 31.5924 0.427771 31.5924 0.955414V13.8082L27.0566 18.3439H8.0892C7.76257 18.3439 7.45849 18.5108 7.28308 18.7865L0.149323 29.9967C-0.0378108 30.2908 -0.0499128 30.6637 0.117858 30.9694C0.285756 31.275 0.606775 31.465 0.955438 31.465H3.05735V58.0892H0.955438C0.427794 58.0892 2.35368e-05 58.5169 2.35368e-05 59.0446C2.35368e-05 59.5722 0.427794 60 0.955438 60H64.1402C64.6678 60 65.0956 59.5722 65.0956 59.0446C65.0956 58.5169 64.6678 58.0892 64.1402 58.0892ZM56.4819 20.2548L62.3998 29.5541H49.2492L39.9498 20.2548H56.4819ZM40.9537 3.94904L39.9056 5.52102C39.6916 5.84191 39.6916 6.26 39.9056 6.58089L40.9537 8.15287H33.5032V3.94904H40.9537ZM8.61365 20.2548H25.1456L15.8463 29.5541H2.69595L8.61365 20.2548ZM4.96818 31.465H16.2418C16.2734 31.465 16.305 31.4633 16.3366 31.4601C16.3501 31.4589 16.3633 31.4563 16.3767 31.4544C16.3942 31.4518 16.4116 31.4498 16.4291 31.4464C16.4446 31.4433 16.4596 31.439 16.4749 31.4352C16.4898 31.4315 16.5049 31.428 16.5196 31.4237C16.5347 31.4191 16.5493 31.4134 16.5641 31.4082C16.5788 31.4029 16.5934 31.3981 16.6079 31.3921C16.6218 31.3864 16.6351 31.3796 16.6486 31.3732C16.6632 31.3662 16.6781 31.3597 16.6925 31.352C16.7056 31.345 16.718 31.3369 16.7307 31.3294C16.7447 31.3211 16.759 31.3131 16.7726 31.3039C16.7869 31.2944 16.8003 31.2838 16.8139 31.2735C16.8251 31.2651 16.8367 31.2573 16.8475 31.2483C16.872 31.2283 16.8954 31.2071 16.9177 31.1847L32.5478 15.5549L48.1779 31.1848C48.2002 31.2071 48.2237 31.2283 48.2481 31.2484C48.2589 31.2573 48.2703 31.2651 48.2816 31.2735C48.2953 31.2838 48.3088 31.2945 48.3231 31.3041C48.3366 31.3131 48.3507 31.321 48.3646 31.3293C48.3775 31.3371 48.39 31.3451 48.4032 31.3521C48.4175 31.3597 48.4321 31.3662 48.4468 31.3731C48.4604 31.3796 48.4739 31.3864 48.4879 31.3922C48.5022 31.3981 48.5167 31.4028 48.5311 31.408C48.546 31.4134 48.5608 31.4191 48.5761 31.4238C48.5906 31.4283 48.6054 31.4315 48.62 31.4352C48.6356 31.4391 48.6509 31.4434 48.6666 31.4465C48.6835 31.4498 48.7004 31.4518 48.7174 31.4543C48.7312 31.4563 48.745 31.4589 48.7591 31.4603C48.7905 31.4633 48.8219 31.465 48.8534 31.465H60.1274V58.0892H39.6179V44.7771C39.6179 43.1264 38.2749 41.7834 36.6242 41.7834H28.4714C26.8207 41.7834 25.4777 43.1264 25.4777 44.7771V58.0892H4.96818V31.465ZM37.707 45.8599H27.3886V44.7771C27.3886 44.18 27.8743 43.6943 28.4714 43.6943H36.6242C37.2213 43.6943 37.707 44.18 37.707 44.7771V45.8599ZM27.3886 47.7707H31.5924V58.0892H27.3886V47.7707ZM33.5032 47.7707H37.707V58.0892H33.5032V47.7707Z" fill="#BE8553"/>
<path d="M32.5476 38.5987C36.4461 38.5987 39.6177 35.4272 39.6177 31.5287C39.6177 27.6302 36.4461 24.4586 32.5476 24.4586C28.6491 24.4586 25.4775 27.6302 25.4775 31.5287C25.4775 35.4272 28.6491 38.5987 32.5476 38.5987ZM32.5476 26.3694C35.3924 26.3694 37.7068 28.6838 37.7068 31.5287C37.7068 34.3735 35.3924 36.6879 32.5476 36.6879C29.7028 36.6879 27.3884 34.3735 27.3884 31.5287C27.3884 28.6838 29.7028 26.3694 32.5476 26.3694Z" fill="#BE8553"/>
<path d="M32.5479 32.4841C33.0755 32.4841 33.5033 32.0564 33.5033 31.5287V28.4714C33.5033 27.9438 33.0755 27.516 32.5479 27.516C32.0203 27.516 31.5925 27.9438 31.5925 28.4714V30.5733H29.4906C28.9629 30.5733 28.5352 31.0011 28.5352 31.5287C28.5352 32.0564 28.9629 32.4841 29.4906 32.4841H32.5479Z" fill="#BE8553"/>
<path d="M22.3566 46.879H17.2611C16.7334 46.879 16.3057 47.3068 16.3057 47.8344V53.9491C16.3057 54.4767 16.7334 54.9045 17.2611 54.9045H22.3566C22.8843 54.9045 23.312 54.4767 23.312 53.9491V47.8344C23.312 47.3068 22.8843 46.879 22.3566 46.879ZM21.4012 48.7899V49.9364H18.2165V48.7899H21.4012ZM18.2165 52.9937V51.8472H21.4012V52.9937H18.2165Z" fill="#BE8553"/>
<path d="M13.1847 46.879H8.0892C7.56156 46.879 7.13379 47.3068 7.13379 47.8344V53.9491C7.13379 54.4767 7.56156 54.9045 8.0892 54.9045H13.1847C13.7124 54.9045 14.1402 54.4767 14.1402 53.9491V47.8344C14.1402 47.3068 13.7124 46.879 13.1847 46.879ZM12.2293 48.7899V49.9364H9.04462V48.7899H12.2293ZM9.04462 52.9937V51.8472H12.2293V52.9937H9.04462Z" fill="#BE8553"/>
<path d="M22.0381 34.6497H17.5795C16.8771 34.6497 16.3057 35.2211 16.3057 35.9235V42.7388C16.3057 43.2665 16.7334 43.6942 17.2611 43.6942H22.3566C22.8843 43.6942 23.312 43.2665 23.312 42.7388V35.9235C23.312 35.2211 22.7406 34.6497 22.0381 34.6497ZM21.4012 36.5605V38.7261H18.2165V36.5605H21.4012ZM18.2165 41.7834V40.6369H21.4012V41.7834H18.2165Z" fill="#BE8553"/>
<path d="M12.8663 34.6497H8.40767C7.70525 34.6497 7.13379 35.2211 7.13379 35.9235V42.7388C7.13379 43.2665 7.56156 43.6942 8.0892 43.6942H13.1847C13.7124 43.6942 14.1402 43.2665 14.1402 42.7388V35.9235C14.1402 35.2211 13.5687 34.6497 12.8663 34.6497ZM12.2293 36.5605V38.7261H9.04462V36.5605H12.2293ZM9.04462 41.7834V40.6369H12.2293V41.7834H9.04462Z" fill="#BE8553"/>
<path d="M51.9115 54.9045H57.007C57.5347 54.9045 57.9624 54.4767 57.9624 53.9491V47.8344C57.9624 47.3068 57.5347 46.879 57.007 46.879H51.9115C51.3838 46.879 50.9561 47.3068 50.9561 47.8344V53.9491C50.9561 54.4767 51.3838 54.9045 51.9115 54.9045ZM52.8669 52.9937V51.8472H56.0516V52.9937H52.8669ZM56.0516 48.7899V49.9364H52.8669V48.7899H56.0516Z" fill="#BE8553"/>
<path d="M42.7396 54.9045H47.8351C48.3628 54.9045 48.7905 54.4767 48.7905 53.9491V47.8344C48.7905 47.3068 48.3628 46.879 47.8351 46.879H42.7396C42.212 46.879 41.7842 47.3068 41.7842 47.8344V53.9491C41.7842 54.4767 42.212 54.9045 42.7396 54.9045ZM43.695 52.9937V51.8472H46.8797V52.9937H43.695ZM46.8797 48.7899V49.9364H43.695V48.7899H46.8797Z" fill="#BE8553"/>
<path d="M51.9115 43.6942H57.007C57.5347 43.6942 57.9624 43.2665 57.9624 42.7388V35.9235C57.9624 35.2211 57.391 34.6497 56.6885 34.6497H52.2299C51.5275 34.6497 50.9561 35.2211 50.9561 35.9235V42.7388C50.9561 43.2665 51.3838 43.6942 51.9115 43.6942ZM52.8669 41.7834V40.6369H56.0516V41.7834H52.8669ZM56.0516 36.5605V38.7261H52.8669V36.5605H56.0516Z" fill="#BE8553"/>
<path d="M42.7396 43.6942H47.8351C48.3628 43.6942 48.7905 43.2665 48.7905 42.7388V35.9235C48.7905 35.2211 48.2191 34.6497 47.5167 34.6497H43.0581C42.3556 34.6497 41.7842 35.2211 41.7842 35.9235V42.7388C41.7842 43.2665 42.212 43.6942 42.7396 43.6942ZM43.695 41.7834V40.6369H46.8797V41.7834H43.695ZM46.8797 36.5605V38.7261H43.695V36.5605H46.8797Z" fill="#BE8553"/>
</svg>
