<svg xmlns="http://www.w3.org/2000/svg" fill="#be8553" xmlns:xlink="http://www.w3.org/1999/xlink" id="Capa_1" x="0px" y="0px" viewBox="0 0 58.999 58.999" style="enable-background:new 0 0 58.999 58.999;" xml:space="preserve">
<g>
	<path d="M57.227,32.534c-2.077-7.549-7.112-9.155-9.929-9.439c-3.219-0.333-6.313,1.365-7.882,4.243   c-2.838,5.205-8.339,7.654-11.111,8.598c-0.792-0.8-1.695-1.523-2.698-2.16c2.758-3.222,3.739-8.035,2.494-12.542   c-1.536-5.562-6.756-9.34-12.78-9.231c-3.674,0.078-6.621,1.101-8.759,3.039c-0.489,0.442-0.596,1.174-0.255,1.739l2.562,4.272   c0.226,0.375,0.619,0.621,1.054,0.66c0.439,0.04,0.88-0.138,1.173-0.474c1.381-1.578,4.68-3.518,8.296-0.778   c0.865,0.656,1.513,1.555,1.822,2.531c1.032,3.264-0.577,6.702-3.588,7.663c-1.568,0.501-2.622,1.971-2.622,3.733   c0,1.859,1.364,3.464,3.245,3.816c3.983,0.746,6.66,3.413,6.66,6.635c0,3.814-5.551,7.161-8.905,7.161   c-3.339,0-8.051-4.792-12.927-13.148l-0.659-0.996l-1.403,0.577l-0.013,0.657c-0.115,6.237,1.96,11.997,5.694,15.801   c2.602,2.65,5.807,4.11,9.024,4.11c8.979,0,16.283-6.353,16.283-14.161c0-0.897-0.09-1.779-0.268-2.631   c3.959-1.504,10.284-4.824,13.908-11.473c0.197-0.36,0.512-0.62,0.94-0.581c1.161,0.117,2.818,0.687,3.803,4.263   c1.006,3.66,0.555,7.686-1.239,11.044c-1.216,2.277-2.534,3.431-3.911,3.432c-0.02,0-1.963-0.037-3.092-1.146   c-0.235-0.231-4.768-4.099-6.592-4.658c-0.353-0.109-0.731-0.054-1.037,0.152c-0.308,0.206-0.503,0.536-0.536,0.908   c-0.104,1.178-0.18,5.285,3.188,8.653c3.025,3.026,7.208,3.184,8.106,3.184c0.001,0,0.003,0,0.004,0   c2.87,0,6.957-1.247,10.127-7.185C58.046,43.856,58.71,37.927,57.227,32.534z M53.642,47.86c-2.704,5.064-6.04,6.127-8.443,6.127   c-0.671,0-4.144-0.125-6.616-2.598c-2.032-2.033-2.532-4.386-2.621-5.867c1.662,1.048,4.379,3.256,4.782,3.652   c1.73,1.699,4.377,1.719,4.489,1.719c2.178-0.001,4.088-1.512,5.679-4.49c2.033-3.806,2.545-8.368,1.403-12.518   c-0.97-3.524-2.83-5.449-5.528-5.723c-1.176-0.114-2.304,0.524-2.898,1.614c-3.577,6.563-10.099,9.616-13.667,10.853l-0.898,0.311   l0.266,0.913c0.275,0.949,0.415,1.953,0.415,2.985c0,6.706-6.407,12.161-14.283,12.161c-2.677,0-5.375-1.247-7.597-3.511   c-2.599-2.647-4.304-6.375-4.895-10.566c3.617,5.592,8.305,11.077,12.774,11.077c4.307,0,10.905-4.104,10.905-9.161   c0-4.216-3.332-7.672-8.293-8.601c-0.949-0.178-1.612-0.938-1.612-1.928c0-0.799,0.506-1.519,1.23-1.75   c4.059-1.296,6.251-5.859,4.886-10.172c-0.434-1.366-1.328-2.617-2.521-3.521c-3.85-2.918-7.954-1.866-10.434,0.459l-1.877-3.129   c1.743-1.394,4.12-2.131,7.075-2.194c5.059-0.113,9.517,3.084,10.81,7.763c1.146,4.151,0.122,8.575-2.608,11.27   c-0.288,0.284-0.422,0.675-0.369,1.072c0.053,0.393,0.292,0.743,0.64,0.938c1.34,0.752,2.495,1.663,3.435,2.706l0.429,0.475   l0.611-0.189c2.732-0.848,9.456-3.496,12.862-9.743c1.186-2.177,3.514-3.455,5.924-3.21c2.308,0.233,6.442,1.581,8.203,7.98   C56.648,37.969,56.043,43.362,53.642,47.86z"></path>
	<path d="M35.067,20.242c0.599,0.072,1.203,0.109,1.795,0.109c4.416,0,8.777-1.97,12.961-5.856c0.432-0.401,0.675-0.949,0.687-1.542   c0.011-0.594-0.225-1.176-0.645-1.596l-2.563-2.563c-0.829-0.83-2.152-0.866-3.012-0.079c-2.911,2.677-5.684,3.89-8.239,3.588   c-4.094-0.478-8.899-3.282-10.275-4.13c-0.415-0.256-0.934-0.231-1.319,0.066c-0.387,0.297-0.545,0.791-0.403,1.261   C24.749,11.793,27.6,19.342,35.067,20.242z M35.819,14.29c3.15,0.365,6.469-1.016,9.824-4.101c0.064-0.059,0.177-0.048,0.245,0.02   l2.563,2.563c0.052,0.052,0.059,0.114,0.059,0.146c-0.001,0.047-0.018,0.085-0.048,0.114c-4.302,3.996-8.691,5.763-13.155,5.227   c-4.738-0.572-7.304-4.475-8.535-7.207C29.063,12.281,32.601,13.914,35.819,14.29z"></path>
	<path d="M35.958,11.07c0.288,0.287,0.666,0.431,1.045,0.431c0.378,0,0.757-0.144,1.046-0.432l4.273-4.274   c0.574-0.576,0.574-1.513-0.001-2.09l-4.273-4.274c-0.575-0.573-1.512-0.576-2.091,0.001l-4.273,4.274   c-0.574,0.576-0.574,1.513,0.001,2.09L35.958,11.07z M37.003,2.214l3.535,3.536l-3.535,3.536L33.468,5.75L37.003,2.214z"></path>
</g>
<g>
</g>
<g>
</g>
<g>
</g>
<g>
</g>
<g>
</g>
<g>
</g>
<g>
</g>
<g>
</g>
<g>
</g>
<g>
</g>
<g>
</g>
<g>
</g>
<g>
</g>
<g>
</g>
<g>
</g>
</svg>