<svg width="103" height="90" viewBox="0 0 103 90" fill="none" xmlns="http://www.w3.org/2000/svg">
<path d="M102.101 64.5297C101.162 60.814 97.1866 59.0961 94.4099 60.0549L89.8752 61.6131V38.3203C90.6942 38.9396 91.6731 39.2592 92.7118 39.2592C94.6895 39.2592 96.4275 38.0806 97.1267 36.2427C97.8459 34.4049 97.3664 32.3672 95.9281 31.0288L75.412 12.0709C74.8127 11.5116 73.8538 11.5515 73.2945 12.1508C72.7351 12.7501 72.7751 13.709 73.3744 14.2684L93.8905 33.2063C94.7095 33.9654 94.4298 34.8643 94.33 35.124C93.8305 36.3826 92.3323 36.5424 91.5132 35.7833L63.6657 10.0932C61.8678 8.43516 59.0311 8.43516 57.2332 10.0932L29.3857 35.7833C28.5467 36.5424 27.0484 36.3826 26.569 35.124C26.4691 34.8643 26.1894 33.9454 27.0085 33.2063L59.2509 3.44099C59.9101 2.82171 60.9689 2.82171 61.6281 3.44099L68.56 9.8535C69.1593 10.4129 70.1182 10.3729 70.6775 9.7736C71.2369 9.1743 71.1969 8.21542 70.5976 7.65607L63.6657 1.24355C61.8678 -0.414516 59.0311 -0.414516 57.2332 1.24355L24.9709 31.0088C23.5325 32.3473 23.0531 34.3849 23.7723 36.2227C24.4914 38.0606 26.2294 39.2392 28.1871 39.2392C29.2059 39.2392 30.1848 38.9196 31.0038 38.3203V50.1065C27.3681 50.9256 23.8921 52.324 21.2952 53.6224V48.7881C21.2952 46.9702 19.8169 45.4919 17.999 45.4919H14.1635V41.7563C14.1635 40.9372 13.4843 40.258 12.6652 40.258H1.49825C0.679208 40.258 0 40.9372 0 41.7563V88.5017C0 89.3208 0.679208 90 1.49825 90H12.6652C13.4843 90 14.1635 89.3208 14.1635 88.5017V84.7661H18.019C19.8369 84.7661 21.3151 83.2878 21.3151 81.47V77.8741L51.6597 86.3842C53.3578 86.8637 55.1956 86.9436 56.9935 86.544L74.8926 82.7085C75.452 82.5886 89.2758 76.0762 97.7659 72.0809C100.902 71.162 102.9 67.6661 102.101 64.5297ZM34.0003 35.6035L59.2509 12.2907C59.9101 11.6714 60.9689 11.6714 61.6281 12.2907L86.8587 35.5835V62.6519L74.7328 66.847L71.2369 67.0068V38.3403C71.2369 32.2474 66.3626 27.3331 60.4095 27.1134C55.0158 27.2932 50.4012 31.4084 49.682 36.862C49.5822 37.681 50.1615 38.4402 50.9805 38.54C51.7996 38.6399 52.5587 38.0606 52.6586 37.2416C53.178 33.3061 56.4741 30.2897 60.4095 30.1099C64.7644 30.3096 68.2404 33.9254 68.2404 38.3203V63.7906C68.1405 63.5509 68.0206 63.3111 67.9008 63.0714C67.0817 61.6131 65.7433 60.5743 64.1452 60.1149C64.1252 60.1149 64.1252 60.1149 64.1052 60.0949C64.0253 60.0749 57.0135 58.317 53.4377 57.0984C53.178 57.0185 52.8983 56.8786 52.5787 56.7388V43.5941C52.5787 42.7751 51.8995 42.0959 51.0804 42.0959C50.2614 42.0959 49.5822 42.7751 49.5822 43.5941V55.0208C48.823 54.5214 48.0639 54.002 47.3248 53.4826C44.8876 51.8046 42.7701 50.3463 41.2519 49.9268C39.0145 49.2875 36.4974 49.2475 33.9804 49.5672V35.6035H34.0003ZM18.019 81.7696H14.1635V60.9938C14.1635 60.1748 13.4843 59.4956 12.6652 59.4956C11.8462 59.4956 11.167 60.1748 11.167 60.9938V87.0035H2.9965V43.2545H11.167V54.4814C11.167 55.3005 11.8462 55.9797 12.6652 55.9797C13.4843 55.9797 14.1635 55.3005 14.1635 54.4814V48.5084H18.019C18.1788 48.5084 18.3186 48.6482 18.3186 48.8081V81.5099C18.3186 81.6298 18.1788 81.7696 18.019 81.7696ZM74.2134 79.7719C74.2534 79.752 74.3133 79.752 74.3533 79.752C74.2933 79.752 74.2534 79.7719 74.2134 79.7719ZM96.867 69.2043C96.867 69.2043 75.7117 79.1127 74.1335 79.7919L56.3742 83.6075C55.0957 83.8871 53.7373 83.8472 52.4788 83.4876L21.3151 74.7578V56.9985C26.1695 54.3017 34.7395 51.2252 40.4728 52.8234C42.7701 53.4626 48.9029 58.7964 52.5187 60.015C56.1345 61.2336 62.8667 62.9316 63.3861 63.0714C65.4836 63.6707 66.3826 66.1278 65.2239 67.9258C64.4448 69.1244 63.0065 69.6837 61.6281 69.2842L45.3471 64.7295C44.548 64.5097 43.729 64.9692 43.5092 65.7683C43.2895 66.5673 43.749 67.3864 44.548 67.6061C61.5682 72.3007 60.9888 72.4005 62.5071 72.4005C64.325 72.4005 66.0629 71.6015 67.2615 70.1831C75.3721 69.7836 75.1523 69.8635 75.5319 69.7237L95.3288 62.8916C97.0468 62.4921 98.7848 63.5309 99.2043 65.2489C99.6038 66.867 98.4651 68.7848 96.867 69.2043Z" fill="#BE8553"/>
</svg>
