<svg xmlns="http://www.w3.org/2000/svg" fill="#be8553" xmlns:xlink="http://www.w3.org/1999/xlink" id="Capa_1" x="0px" y="0px" width="218.433px" height="218.433px" viewBox="0 0 218.433 218.433" style="enable-background:new 0 0 218.433 218.433;" xml:space="preserve">
	<g>
		<g>
			<path d="M193.903,102.645h-11.095c-1.939,0-3.504,1.565-3.504,3.504v41.761c0,1.938,1.564,3.504,3.504,3.504h11.095   c1.94,0,3.505-1.566,3.505-3.504v-41.761C197.408,104.213,195.843,102.645,193.903,102.645z M190.399,144.405h-4.086v-34.752   h4.086V144.405z">
			</path>
			<path d="M214.929,109.653c1.94,0,3.504-1.567,3.504-3.505V79.867c0-1.265-0.681-2.432-1.783-3.053l-105.714-59.57   c-1.069-0.602-2.376-0.602-3.442,0L1.783,76.814C0.683,77.435,0,78.602,0,79.867v26.282c0,1.938,1.566,3.505,3.504,3.505h6.427   v34.752H3.504c-1.938,0-3.504,1.563-3.504,3.504v17.521c0,1.938,1.566,3.504,3.504,3.504h6.43v29.202   c0,1.937,1.567,3.504,3.504,3.504h33.28c1.939,0,3.504-1.567,3.504-3.504v-29.202h6.43c1.939,0,3.504-1.566,3.504-3.504v-17.521   c0-1.94-1.565-3.504-3.504-3.504h-6.43v-34.752h6.43c1.939,0,3.504-1.567,3.504-3.505c0-8.978,5.424-15.257,16.579-19.193   c9.868-3.484,21.5-4.005,27.552-4.005c2.88,0,4.663,0.116,4.699,0.12c0.151,0.007,0.308,0.007,0.465,0   c0.109-0.007,1.879-0.12,4.688-0.12c13.272,0.003,44.134,2.267,44.134,23.198c0,1.938,1.567,3.505,3.504,3.505h6.431v34.752   h-6.431c-1.937,0-3.504,1.563-3.504,3.504v17.521c0,1.938,1.567,3.504,3.504,3.504h6.431v29.202c0,1.937,1.567,3.504,3.505,3.504   h33.28c1.937,0,3.504-1.567,3.504-3.504v-29.202h6.431c1.94,0,3.504-1.566,3.504-3.504v-17.521c0-1.94-1.563-3.504-3.504-3.504   h-6.427v-34.752H214.929z M204.998,151.413h6.427v10.514h-6.43c-1.938,0-3.505,1.563-3.505,3.504v29.201h-26.271v-29.201   c0-1.94-1.564-3.504-3.504-3.504h-6.431v-10.514h6.431c1.939,0,3.504-1.566,3.504-3.504v-41.761c0-1.938-1.564-3.504-3.504-3.504   h-6.643c-2.943-24.012-36.241-26.7-50.931-26.7c-2.558,0-4.327,0.083-4.93,0.12c-0.726-0.043-2.495-0.12-4.919-0.12   c-14.691,0-47.989,2.691-50.932,26.7h-6.641c-1.938,0-3.504,1.565-3.504,3.504v41.761c0,1.938,1.565,3.504,3.504,3.504h6.431   v10.514h-6.431c-1.938,0-3.504,1.563-3.504,3.504v29.201H16.943v-29.201c0-1.94-1.566-3.504-3.504-3.504h-6.43v-10.514h6.427   c1.938,0,3.504-1.566,3.504-3.504v-41.761c0-1.938-1.566-3.504-3.504-3.504H7.009V81.913l102.209-57.597l102.206,57.597v20.731   h-6.427c-1.94,0-3.504,1.565-3.504,3.504v41.761C201.494,149.847,203.057,151.413,204.998,151.413z">
			</path>
			<path d="M35.625,102.645H24.53c-1.939,0-3.504,1.565-3.504,3.504v41.761c0,1.938,1.565,3.504,3.504,3.504h11.095   c1.938,0,3.504-1.566,3.504-3.504v-41.761C39.129,104.213,37.563,102.645,35.625,102.645z M32.121,144.405h-4.086v-34.752h4.086   V144.405z">
			</path>
			<path d="M107.8,96.235c-0.221-0.021-0.438-0.021-0.659,0c-9.515,0.895-40.56,4.837-40.56,18.089v31.833   c0,1.937,1.566,3.504,3.504,3.504h74.76c1.938,0,3.505-1.567,3.505-3.504v-31.833C148.351,101.072,117.312,97.13,107.8,96.235z    M141.342,142.653H73.59v-28.329c0-4.486,17.815-9.525,33.879-11.078c16.06,1.549,33.873,6.584,33.873,11.078V142.653z">
			</path>
		</g>
	</g>
	<g>
	</g>
	<g>
	</g>
	<g>
	</g>
	<g>
	</g>
	<g>
	</g>
	<g>
	</g>
	<g>
	</g>
	<g>
	</g>
	<g>
	</g>
	<g>
	</g>
	<g>
	</g>
	<g>
	</g>
	<g>
	</g>
	<g>
	</g>
	<g>
	</g>
</svg>
