<svg width="91" height="90" viewBox="0 0 91 90" fill="none" xmlns="http://www.w3.org/2000/svg">
<path d="M87.7571 72.6404L68.5843 58.2606L67.4257 59.4192L61.612 53.6054C71.0433 40.3513 69.8559 21.8091 57.9775 9.93154C44.7339 -3.30971 23.1878 -3.31131 9.94816 9.93154C3.53266 16.3454 0 24.8738 0 33.9446C0 43.0178 3.53266 51.5462 9.94736 57.9601C16.3621 64.3756 24.8904 67.9083 33.9621 67.9083C41.1187 67.9083 47.9188 65.6792 53.6276 61.6025L59.435 67.4091L58.2764 68.5677L72.6562 87.7421C73.6385 89.0521 75.1392 89.8702 76.7738 89.9856C76.9084 89.9952 77.043 90 77.1768 90C78.6695 90 80.1069 89.4111 81.171 88.347L88.3621 81.1543C89.5215 79.9957 90.1192 78.3933 90.003 76.7579C89.886 75.1242 89.0672 73.6219 87.7571 72.6404V72.6404ZM12.5987 55.308C6.89305 49.6016 3.75059 42.0163 3.75059 33.947C3.75059 25.8762 6.89305 18.29 12.6003 12.5836C18.4894 6.69374 26.2253 3.74919 33.9621 3.74919C41.6988 3.74919 49.4355 6.69374 55.3254 12.5836C67.1044 24.3626 67.1044 43.529 55.3254 55.308C49.619 61.0152 42.0321 64.1577 33.9621 64.1577C25.892 64.1577 18.3059 61.0152 12.5987 55.308V55.308ZM59.4174 56.715L64.7728 62.0697L62.0863 64.7562L56.73 59.4015L59.4174 56.715ZM85.7108 78.503L78.5205 85.695C78.1247 86.0884 77.6103 86.2879 77.0406 86.2446C76.4829 86.2061 75.991 85.9369 75.656 85.4914L63.228 68.9194L68.9361 63.2122L85.5073 75.6402C85.9543 75.9759 86.222 76.4679 86.2612 77.0248C86.3013 77.5816 86.1058 78.1072 85.7108 78.503V78.503Z" fill="#BE8553"/>
<path d="M56.7489 33.9472L56.2209 33.0185C55.0006 30.8776 53.4278 28.9474 51.5481 27.2825C41.8499 18.6988 26.0736 18.6988 16.377 27.2825C14.4965 28.9474 12.9237 30.8776 11.7034 33.0185L11.1746 33.9472L11.7042 34.8758C12.9261 37.0199 14.4981 38.9485 16.377 40.6111C21.2245 44.9025 27.5935 47.0466 33.9618 47.0466C40.3308 47.0466 46.699 44.9025 51.5473 40.6111C53.4262 38.9485 54.9982 37.0199 56.2201 34.8758L56.7489 33.9472ZM49.0619 37.8019C40.7346 45.1717 27.1873 45.1717 18.8624 37.8019C17.5692 36.6577 16.4507 35.3646 15.5277 33.9472C16.4499 32.5298 17.5684 31.2366 18.8632 30.0916C27.1905 22.7186 40.7378 22.7202 49.0619 30.0916C50.3559 31.2366 51.4736 32.5298 52.3958 33.9472C51.4728 35.3646 50.3551 36.6577 49.0619 37.8019Z" fill="#BE8553"/>
<path d="M33.9621 26.4443C29.8261 26.4443 26.4609 29.8087 26.4609 33.9463C26.4609 38.0831 29.8261 41.4475 33.9621 41.4475C38.0989 41.4475 41.4641 38.0831 41.4641 33.9463C41.4641 29.8087 38.0989 26.4443 33.9621 26.4443ZM33.9621 37.6969C31.8941 37.6969 30.2115 36.0135 30.2115 33.9463C30.2115 31.8783 31.8941 30.1957 33.9621 30.1957C36.0309 30.1957 37.7127 31.8783 37.7127 33.9463C37.7127 36.0135 36.0309 37.6969 33.9621 37.6969Z" fill="#BE8553"/>
</svg>
