<svg xmlns="http://www.w3.org/2000/svg" fill="#be8553" xmlns:xlink="http://www.w3.org/1999/xlink" id="Layer_1" x="0px" y="0px" viewBox="0 0 512 512" style="enable-background:new 0 0 512 512;" xml:space="preserve">
	<g>
		<g>
			<g>
				<path d="M503.775,365.34c-4.265-0.774-8.479,1.297-10.525,4.997c-1.637,1.663-20.038,17.727-117.11,17.727    c-57.89,0-94.04-13.112-129-25.793c-34.828-12.633-70.842-25.695-126.535-25.695c-47.103,0-81.087,5.184-101.01,15.405    c-17.8,9.134-19.494,19.828-19.59,22.889C0.002,374.973,0,375.077,0,375.181v48.628c0,5.462,4.383,9.914,9.844,9.999    c0.054,0.001,0.106,0.001,0.159,0.001c4.954,0,9.101-3.617,9.869-8.4c0.995-1.738,13.827-20.205,100.732-20.205    c52.178,0,84.984,11.899,119.716,24.497c36.584,13.27,74.414,26.991,135.819,26.991c112.162,0,131.935-20.553,135.23-29.389    c0.416-1.118,0.63-2.301,0.63-3.494v-48.628C512,370.343,508.536,366.198,503.775,365.34z M492,420.011    c-5.443,3.986-29.567,16.681-115.86,16.681c-57.89,0-94.04-13.112-129-25.793c-34.828-12.633-70.842-25.695-126.535-25.695    c-46.786,0-80.629,5.113-100.604,15.199v-23.83c1.729-2.652,16.38-19.997,100.604-19.997c52.178,0,84.984,11.899,119.716,24.497    c36.584,13.27,74.414,26.991,135.819,26.991c64.001,0,97.919-6.691,115.86-14.08V420.011z">
				</path>
				<path d="M120.604,421.634c-30.396,0-55.56,2.185-74.791,6.494c-5.389,1.207-8.779,6.555-7.571,11.944    c1.042,4.653,5.171,7.815,9.749,7.815c0.724,0,1.459-0.079,2.195-0.244c17.798-3.987,41.49-6.01,70.418-6.01    c5.522,0,10-4.478,10-10C130.604,426.111,126.127,421.634,120.604,421.634z">
				</path>
				<path d="M376.14,473.122c-57.89,0-94.039-13.112-128.999-25.792c-21.178-7.683-43.077-15.625-69.288-20.562    c-5.43-1.026-10.655,2.551-11.678,7.977c-1.022,5.428,2.549,10.655,7.977,11.678c24.617,4.636,44.801,11.957,66.17,19.708    c36.584,13.27,74.414,26.991,135.818,26.991c5.522,0,10-4.478,10-10C386.14,477.6,381.662,473.122,376.14,473.122z">
				</path>
				<path d="M47.991,143.888c0.724,0,1.459-0.079,2.195-0.244c17.798-3.987,41.49-6.01,70.418-6.01c5.522,0,10-4.478,10-10    c0-5.522-4.478-10-10-10c-30.396,0-55.56,2.185-74.791,6.494c-5.389,1.207-8.779,6.555-7.571,11.944    C39.284,140.726,43.413,143.888,47.991,143.888z">
				</path>
				<path d="M503.775,275.281c-4.265-0.776-8.479,1.297-10.525,4.998c-1.637,1.662-20.038,17.727-117.11,17.727    c-57.89,0-94.04-13.112-129-25.793c-34.828-12.633-70.842-25.695-126.535-25.695c-47.103,0-81.087,5.183-101.01,15.405    c-17.8,9.133-19.494,19.827-19.59,22.888C0.002,284.914,0,285.019,0,285.122v48.628c0,5.462,4.383,9.914,9.844,9.999    c0.054,0.001,0.106,0.001,0.159,0.001c4.954,0,9.101-3.617,9.869-8.4c0.995-1.738,13.827-20.204,100.732-20.204    c52.178,0,84.984,11.899,119.716,24.497c36.584,13.27,74.414,26.991,135.819,26.991c112.162,0,131.935-20.553,135.23-29.39    c0.416-1.118,0.63-2.301,0.63-3.494v-48.628C512,280.284,508.536,276.14,503.775,275.281z M492,329.952    c-5.443,3.987-29.567,16.682-115.86,16.682c-57.89,0-94.04-13.112-129-25.793c-34.828-12.633-70.842-25.695-126.535-25.695    c-46.786,0-80.629,5.113-100.604,15.199v-23.83c1.729-2.653,16.38-19.997,100.604-19.997c52.178,0,84.984,11.899,119.716,24.497    c36.584,13.27,74.414,26.991,135.819,26.991c64.002,0,97.919-6.691,115.86-14.08V329.952z">
				</path>
				<path d="M503.775,182.397c-4.265-0.772-8.479,1.296-10.525,4.998c-1.637,1.662-20.038,17.727-117.11,17.727    c-57.89,0-94.04-13.112-129-25.793c-34.828-12.633-70.842-25.695-126.535-25.695c-47.103,0-81.087,5.183-101.01,15.405    c-17.8,9.133-19.494,19.827-19.59,22.888C0.002,192.03,0,192.135,0,192.238v48.628c0,5.462,4.383,9.913,9.844,9.999    c0.054,0.001,0.106,0.001,0.159,0.001c4.954,0,9.101-3.617,9.869-8.4c0.995-1.738,13.827-20.204,100.732-20.204    c52.178,0,84.984,11.899,119.716,24.497c36.584,13.27,74.414,26.991,135.819,26.991c112.162,0,131.935-20.554,135.23-29.39    c0.416-1.118,0.63-2.301,0.63-3.494v-48.628C512,187.4,508.536,183.256,503.775,182.397z M492,237.068    c-5.443,3.987-29.567,16.682-115.86,16.682c-57.89,0-94.04-13.112-129-25.793c-34.828-12.633-70.842-25.695-126.535-25.695    c-46.786,0-80.629,5.113-100.604,15.199v-23.83c1.729-2.653,16.38-19.997,100.604-19.997c52.178,0,84.984,11.899,119.716,24.497    c36.584,13.27,74.414,26.991,135.819,26.991c64.002,0,97.919-6.691,115.86-14.08V237.068z">
				</path>
				<path d="M336,184.878c0.511,0,1.01-0.051,1.5-0.125c0.49,0.074,0.989,0.125,1.5,0.125h63c5.522,0,10-4.478,10-10    c0-5.522-4.478-10-10-10h-56v-24h56c5.522,0,10-4.478,10-10c0-5.522-4.478-10-10-10h-56v-24h56c5.522,0,10-4.478,10-10    c0-5.522-4.478-10-10-10h-56v-13.5c0-13.51,10.99-24.5,24.5-24.5s24.5,10.99,24.5,24.5c0,5.522,4.478,10,10,10    c5.522,0,10-4.478,10-10c0-24.537-19.963-44.5-44.5-44.5S326,38.841,326,63.378v111.5C326,180.4,330.478,184.878,336,184.878z">
				</path>
				<path d="M433,184.878c5.522,0,10-4.478,10-10v-111.5c0-13.51,10.99-24.5,24.5-24.5s24.5,10.99,24.5,24.5c0,5.522,4.478,10,10,10    c5.522,0,10-4.478,10-10c0-24.537-19.963-44.5-44.5-44.5S423,38.841,423,63.378v111.5C423,180.4,427.478,184.878,433,184.878z">
				</path>
			</g>
		</g>
	</g>
	<g>
	</g>
	<g>
	</g>
	<g>
	</g>
	<g>
	</g>
	<g>
	</g>
	<g>
	</g>
	<g>
	</g>
	<g>
	</g>
	<g>
	</g>
	<g>
	</g>
	<g>
	</g>
	<g>
	</g>
	<g>
	</g>
	<g>
	</g>
	<g>
	</g>
</svg>
