<svg xmlns="http://www.w3.org/2000/svg" fill="#BE8553" xmlns:xlink="http://www.w3.org/1999/xlink" id="Capa_1" x="0px" y="0px" viewBox="0 0 367.672 367.672" style="enable-background:new 0 0 367.672 367.672;" xml:space="preserve"><path d="M115.253,92.521V48.195c0-10.866,8.839-19.706,19.705-19.706h10.573c4.971,0,9,4.029,9,9s-4.029,9-9,9h-10.573 c-0.924,0-1.705,0.781-1.705,1.706V77.16l0.696-0.391c1.344-0.753,2.859-1.149,4.4-1.149h35.807c4.971,0,9,4.029,9,9s-4.029,9-9,9 H140.7l-12.046,6.752c-1.368,0.766-2.884,1.149-4.4,1.149c-1.573,0-3.146-0.412-4.549-1.234 C116.947,98.672,115.253,95.716,115.253,92.521z M165.157,45.426V19.707C165.157,8.84,173.996,0,184.861,0h47.852 c10.865,0,19.705,8.84,19.705,19.707V74.34c0,3.716-2.283,7.049-5.748,8.392c-1.058,0.41-2.159,0.608-3.25,0.608 c-2.483,0-4.912-1.028-6.652-2.936l-13.93-15.274h-37.977C173.996,65.131,165.157,56.291,165.157,45.426z M183.157,45.426 c0,0.908,0.796,1.705,1.705,1.705h41.949c2.531,0,4.944,1.065,6.65,2.936l0.957,1.049V19.707c0-0.925-0.781-1.707-1.705-1.707 h-47.852c-0.908,0-1.705,0.797-1.705,1.707V45.426z M275.271,118.195c0-20.693,16.835-37.529,37.529-37.529 c20.693,0,37.528,16.835,37.528,37.529s-16.835,37.529-37.528,37.529C292.107,155.724,275.271,138.889,275.271,118.195z  M293.271,118.195c0,10.768,8.761,19.529,19.529,19.529c10.768,0,19.528-8.761,19.528-19.529s-8.76-19.529-19.528-19.529 C302.032,98.667,293.271,107.427,293.271,118.195z M132.182,349.67h-15.316v-83.082c0-4.958-4.01-8.982-8.968-9l-51.788-0.187 v-65.813l63.48,21.192c4.718,1.573,9.813-0.973,11.387-5.687c1.574-4.715-0.972-9.813-5.687-11.387l-75.05-25.054 c-0.774-0.288-1.599-0.471-2.456-0.535c-0.622-0.047-1.238-0.028-1.843,0.05c-1.391,0.18-2.683,0.678-3.799,1.418 c-1.622,1.071-2.91,2.672-3.573,4.658c-0.352,1.054-0.498,2.126-0.459,3.174v86.951c0,0.251,0.01,0.5,0.03,0.746 c0.001,0.009,0.001,0.018,0.002,0.026c0,0.001,0,0.002,0,0.002c0.001,0.009,0.001,0.017,0.002,0.025c0,0.001,0,0.002,0,0.003 c0.001,0.008,0.001,0.015,0.002,0.023c0,0.002,0,0.004,0,0.006c0,0.007,0.001,0.014,0.002,0.021c0,0.002,0,0.005,0,0.007 c0,0.006,0.001,0.013,0.002,0.02c0,0.003,0,0.006,0.001,0.009c0,0.006,0.001,0.013,0.002,0.019c0,0.003,0,0.006,0.001,0.009 c0,0.006,0.001,0.012,0.001,0.018c0,0.004,0.001,0.007,0.001,0.011c0,0.006,0.001,0.012,0.001,0.018c0,0.003,0.001,0.007,0.001,0.01 c0,0.006,0.001,0.011,0.001,0.017c0,0.004,0.001,0.008,0.001,0.012c0,0.005,0.001,0.011,0.002,0.017 c0,0.004,0.001,0.007,0.001,0.012c0,0.005,0.001,0.01,0.001,0.016c0,0.004,0.001,0.009,0.001,0.013 c0.001,0.005,0.001,0.009,0.002,0.014c0,0.004,0.001,0.009,0.001,0.014c0,0.004,0.001,0.009,0.002,0.013 c0,0.005,0.001,0.01,0.001,0.015c0,0.004,0.001,0.009,0.002,0.014c0,0.005,0.001,0.009,0.001,0.014 c0.001,0.005,0.001,0.01,0.002,0.015c0.001,0.004,0.001,0.009,0.002,0.013c0,0.005,0.001,0.009,0.002,0.014 c0,0.005,0.001,0.009,0.002,0.014c0,0.004,0.001,0.009,0.001,0.013c0.001,0.005,0.001,0.01,0.002,0.015 c0.001,0.004,0.001,0.009,0.002,0.014c0,0.005,0.001,0.01,0.002,0.014s0.001,0.009,0.002,0.014c0.001,0.005,0.001,0.01,0.002,0.015 c0.001,0.004,0.001,0.009,0.002,0.013c0.001,0.005,0.001,0.01,0.002,0.015c0,0.004,0.001,0.009,0.002,0.014 c0,0.005,0.001,0.01,0.002,0.015c0.001,0.005,0.001,0.01,0.002,0.015c0,0.004,0.001,0.009,0.002,0.013 c0,0.005,0.001,0.011,0.002,0.017c0,0.004,0.001,0.008,0.001,0.011c0.001,0.006,0.002,0.011,0.003,0.017 c0,0.004,0.001,0.007,0.001,0.011c0.001,0.005,0.002,0.011,0.003,0.017c0,0.003,0.001,0.008,0.002,0.012 c0,0.005,0.001,0.012,0.002,0.017c0.001,0.004,0.001,0.006,0.002,0.01c0.001,0.006,0.002,0.013,0.003,0.019 c0,0.003,0.001,0.006,0.001,0.009c0.001,0.006,0.002,0.013,0.003,0.019c0,0.002,0.001,0.006,0.001,0.008 c0.001,0.006,0.002,0.013,0.003,0.019c0,0.003,0.001,0.006,0.001,0.009c0.001,0.007,0.002,0.015,0.004,0.021 c0,0.002,0,0.004,0.001,0.006c0.001,0.007,0.002,0.015,0.004,0.022c0,0.002,0,0.004,0.001,0.006 c0.001,0.007,0.002,0.015,0.004,0.022c0,0.002,0,0.003,0.001,0.005c0.001,0.008,0.003,0.015,0.004,0.023 c0,0.002,0,0.003,0.001,0.004c0.001,0.008,0.003,0.017,0.004,0.025c0,0,0,0.002,0,0.002c0.002,0.008,0.003,0.018,0.005,0.026 c0,0,0,0.001,0,0.002c0.002,0.009,0.003,0.018,0.005,0.027s0.003,0.018,0.005,0.027v0c0.827,4.114,4.458,7.214,8.815,7.218 l51.764,0.187v82.949c-0.001,0.055-0.001,0.11-0.001,0.166c0,2.039,0.678,3.92,1.821,5.429c1.643,2.171,4.248,3.573,7.18,3.573 c0.062,0,0.125,0,0.186-0.002h24.13c4.971,0,9-4.029,9-9S137.153,349.67,132.182,349.67z M17.343,118.195 c0-20.693,16.835-37.529,37.529-37.529c20.692,0,37.526,16.835,37.526,37.529s-16.834,37.529-37.526,37.529 C34.179,155.724,17.343,138.889,17.343,118.195z M35.343,118.195c0,10.768,8.761,19.529,19.529,19.529 c10.767,0,19.526-8.761,19.526-19.529S65.64,98.667,54.873,98.667C44.104,98.667,35.343,107.427,35.343,118.195z M363.516,298.488 v-91.057c0-4.971-4.029-9-9-9s-9,4.029-9,9v82.306h-50.457c-4.971,0-9,4.029-9,9v59.933c0,4.971,4.029,9,9,9s9-4.029,9-9v-50.933 h41.46v50.933c0,4.971,4.029,9,9,9s9-4.029,9-9v-59.933C363.519,298.654,363.518,298.571,363.516,298.488z M268.806,275.556 l51.766-0.187c1.445-0.001,2.811-0.343,4.021-0.95l0.001-0.001c0.008-0.004,0.015-0.008,0.023-0.011c0,0,0.001,0,0.001-0.001 c0.008-0.004,0.015-0.007,0.023-0.011c0.001,0,0.002-0.001,0.003-0.002c0.007-0.003,0.014-0.007,0.021-0.011 c0.001,0,0.002-0.001,0.004-0.002c0.006-0.003,0.013-0.007,0.02-0.01c0.002-0.001,0.004-0.002,0.007-0.004 c0.006-0.003,0.011-0.006,0.017-0.009c0.002-0.001,0.005-0.002,0.007-0.003c0.006-0.003,0.011-0.006,0.017-0.009 c0.003-0.001,0.005-0.002,0.008-0.004c0.005-0.003,0.011-0.006,0.016-0.009c0.002-0.001,0.005-0.003,0.008-0.004 c0.005-0.003,0.01-0.005,0.015-0.008c0.003-0.002,0.006-0.004,0.01-0.005c0.004-0.003,0.009-0.005,0.014-0.008 c0.003-0.002,0.007-0.003,0.01-0.005c0.004-0.002,0.009-0.005,0.014-0.007c0.003-0.002,0.007-0.004,0.01-0.006 c0.005-0.002,0.009-0.005,0.014-0.007c0.004-0.002,0.007-0.004,0.011-0.006c0.004-0.002,0.008-0.004,0.012-0.007 c0.004-0.002,0.009-0.004,0.013-0.007c0.003-0.002,0.007-0.004,0.011-0.006c0.004-0.002,0.009-0.005,0.013-0.007 c0.003-0.002,0.007-0.003,0.01-0.005c0.005-0.003,0.009-0.005,0.014-0.008c0.003-0.001,0.006-0.003,0.01-0.005 c0.005-0.003,0.01-0.006,0.015-0.009c0.002-0.001,0.005-0.003,0.008-0.004c0.005-0.003,0.01-0.006,0.015-0.009 c0.003-0.001,0.006-0.003,0.008-0.005c0.005-0.003,0.011-0.006,0.016-0.009c0.002-0.001,0.005-0.003,0.007-0.004 c0.005-0.003,0.011-0.006,0.016-0.009c0.002-0.001,0.005-0.003,0.008-0.004c0.005-0.003,0.011-0.006,0.017-0.01 c0.002-0.001,0.004-0.002,0.006-0.003c0.006-0.003,0.012-0.007,0.018-0.011c0.002-0.001,0.003-0.002,0.005-0.003 c0.006-0.004,0.013-0.007,0.019-0.011c0.001,0,0.003-0.001,0.004-0.002c0.006-0.003,0.012-0.007,0.019-0.011 c0.001-0.001,0.003-0.002,0.005-0.003c0.006-0.004,0.013-0.008,0.019-0.012c0.001,0,0.003-0.001,0.004-0.002 c0.006-0.004,0.013-0.008,0.02-0.012c0.001-0.001,0.002-0.001,0.004-0.002c0.007-0.004,0.014-0.008,0.021-0.012 c0.001,0,0.001-0.001,0.002-0.001c0.007-0.004,0.013-0.008,0.02-0.012c0.001,0,0.002-0.001,0.003-0.002 c0.007-0.004,0.015-0.009,0.022-0.014c0,0,0,0,0,0c0.007-0.005,0.015-0.009,0.022-0.014l0.001-0.001 c0.007-0.004,0.015-0.009,0.022-0.014l0.001,0c0.007-0.004,0.015-0.009,0.022-0.014l0.001,0c0.015-0.01,0.03-0.019,0.045-0.029h0 c0.015-0.01,0.03-0.019,0.045-0.029c0,0,0,0,0,0c0.244-0.156,0.479-0.323,0.706-0.501c0,0,0,0,0,0 c0.014-0.011,0.028-0.022,0.042-0.033c0,0,0,0,0,0c0.007-0.005,0.014-0.011,0.021-0.017l0,0c0.006-0.005,0.013-0.01,0.02-0.015 c0-0.001,0.001-0.001,0.002-0.002c0.007-0.005,0.013-0.011,0.02-0.016c0,0,0,0,0,0c0.006-0.005,0.013-0.011,0.02-0.016 c0-0.001,0.001-0.001,0.002-0.001c0.006-0.005,0.013-0.011,0.02-0.016l0.001-0.001c0.006-0.005,0.012-0.01,0.019-0.015 c0.001-0.001,0.002-0.001,0.003-0.002c0.006-0.005,0.013-0.011,0.019-0.016c0,0,0.001-0.001,0.001-0.001 c0.006-0.005,0.012-0.01,0.018-0.015c0.001,0,0.002-0.001,0.003-0.002c0.006-0.005,0.012-0.01,0.018-0.015 c0,0,0.001-0.001,0.002-0.002c0.006-0.005,0.011-0.009,0.017-0.014c0.001-0.001,0.002-0.002,0.004-0.003 c0.005-0.005,0.011-0.01,0.017-0.015c0.001-0.001,0.002-0.002,0.003-0.003c0.005-0.004,0.011-0.009,0.017-0.014 c0.001-0.001,0.003-0.002,0.004-0.003c0.005-0.004,0.011-0.009,0.017-0.014c0.001-0.001,0.003-0.002,0.004-0.003 c0.005-0.004,0.01-0.009,0.016-0.013c0.002-0.002,0.003-0.003,0.005-0.005c0.005-0.004,0.01-0.009,0.016-0.013 c0.001-0.001,0.003-0.003,0.004-0.004c0.005-0.005,0.01-0.009,0.015-0.014c0.002-0.001,0.004-0.003,0.005-0.004 c0.005-0.004,0.01-0.009,0.015-0.013c0.002-0.001,0.004-0.003,0.006-0.005c0.004-0.004,0.009-0.008,0.014-0.012 c0.002-0.002,0.004-0.004,0.007-0.006c0.004-0.004,0.009-0.008,0.014-0.013c0.002-0.001,0.004-0.003,0.006-0.005 c0.005-0.004,0.009-0.008,0.014-0.012c0.002-0.002,0.005-0.004,0.007-0.006c0.004-0.004,0.009-0.008,0.013-0.012 c0.002-0.002,0.004-0.004,0.007-0.006c0.004-0.003,0.008-0.007,0.012-0.011c0.003-0.003,0.005-0.005,0.008-0.008 c0.004-0.003,0.008-0.007,0.012-0.011c0.002-0.002,0.005-0.005,0.008-0.007c0.004-0.004,0.008-0.008,0.012-0.011 c0.002-0.002,0.005-0.005,0.008-0.007c0.004-0.003,0.008-0.007,0.011-0.01c0.003-0.003,0.006-0.005,0.009-0.008 c0.003-0.003,0.007-0.006,0.01-0.009s0.006-0.006,0.01-0.009c0.003-0.003,0.006-0.006,0.009-0.009 c0.003-0.003,0.007-0.006,0.01-0.009c0.003-0.003,0.007-0.006,0.01-0.01c0.003-0.003,0.006-0.006,0.01-0.009 c0.003-0.003,0.006-0.005,0.009-0.008c0.003-0.003,0.007-0.007,0.01-0.01c0.003-0.002,0.006-0.005,0.009-0.008 c0.004-0.004,0.007-0.007,0.011-0.011c0.003-0.003,0.005-0.005,0.008-0.008c0.003-0.003,0.007-0.007,0.011-0.01 c0.003-0.003,0.006-0.006,0.009-0.008c0.004-0.003,0.007-0.007,0.011-0.011c0.003-0.002,0.005-0.005,0.008-0.007 c0.004-0.004,0.008-0.008,0.011-0.011c0.002-0.002,0.005-0.004,0.007-0.007c0.004-0.004,0.008-0.008,0.013-0.013 c0.002-0.002,0.004-0.003,0.006-0.005c0.004-0.004,0.009-0.009,0.013-0.013c0.002-0.002,0.004-0.004,0.006-0.006 c0.005-0.005,0.009-0.009,0.014-0.014c0.002-0.001,0.003-0.003,0.005-0.005c0.005-0.004,0.009-0.009,0.014-0.014 c0.001-0.002,0.003-0.003,0.005-0.005c0.005-0.005,0.01-0.01,0.015-0.015c0.001-0.001,0.002-0.003,0.004-0.004 c0.005-0.005,0.01-0.01,0.015-0.015c0.002-0.002,0.003-0.003,0.005-0.005c0.005-0.004,0.01-0.01,0.015-0.015 c0.001-0.001,0.002-0.002,0.003-0.003c0.005-0.005,0.01-0.01,0.015-0.016c0.001-0.001,0.002-0.002,0.004-0.003 c0.005-0.005,0.01-0.011,0.016-0.016c0.001-0.001,0.001-0.001,0.002-0.002c0.005-0.005,0.011-0.011,0.016-0.017 c0.001-0.001,0.002-0.002,0.003-0.003c0.005-0.005,0.011-0.011,0.016-0.016c0-0.001,0.001-0.001,0.002-0.002 c0.005-0.006,0.011-0.011,0.017-0.017c0-0.001,0.001-0.001,0.001-0.001c0.006-0.006,0.012-0.013,0.018-0.019l0-0.001 c0.006-0.006,0.012-0.012,0.018-0.018c0.001-0.001,0.001-0.001,0.002-0.002c0.005-0.006,0.011-0.012,0.017-0.018l0-0.001 c0.006-0.006,0.012-0.013,0.018-0.019c0.455-0.486,0.856-1.023,1.195-1.601c0,0,0.001-0.001,0.001-0.001 c0.009-0.016,0.018-0.031,0.026-0.046c0,0,0-0.001,0-0.001c0.004-0.008,0.009-0.015,0.013-0.022c0,0,0-0.001,0-0.001 c0.004-0.007,0.008-0.014,0.013-0.021c0.001-0.001,0.001-0.003,0.002-0.004c0.003-0.006,0.007-0.013,0.011-0.02 c0-0.001,0.001-0.003,0.002-0.004c0.004-0.006,0.007-0.013,0.011-0.02c0.001-0.001,0.002-0.003,0.003-0.005 c0.003-0.006,0.007-0.013,0.01-0.019c0.001-0.002,0.002-0.004,0.003-0.006c0.003-0.006,0.006-0.012,0.01-0.018 c0.001-0.002,0.002-0.005,0.004-0.007c0.003-0.005,0.006-0.011,0.009-0.017c0.001-0.002,0.003-0.005,0.004-0.007 c0.003-0.006,0.006-0.011,0.009-0.016c0.001-0.003,0.003-0.006,0.004-0.009c0.003-0.005,0.006-0.01,0.009-0.015 c0.001-0.003,0.003-0.006,0.005-0.01c0.002-0.004,0.005-0.009,0.007-0.014c0.002-0.004,0.004-0.008,0.007-0.012 c0.002-0.004,0.004-0.008,0.006-0.012c0.002-0.004,0.004-0.009,0.007-0.013c0.002-0.004,0.003-0.007,0.006-0.011 c0.002-0.005,0.005-0.01,0.007-0.014c0.002-0.003,0.003-0.006,0.005-0.01c0.002-0.005,0.005-0.01,0.008-0.016 c0.001-0.003,0.002-0.005,0.004-0.008c0.003-0.005,0.006-0.011,0.009-0.017c0.001-0.002,0.002-0.004,0.004-0.007 c0.003-0.006,0.006-0.012,0.009-0.019c0.001-0.001,0.002-0.004,0.003-0.005c0.003-0.006,0.006-0.012,0.01-0.019 c0.001-0.002,0.002-0.004,0.003-0.006c0.003-0.007,0.007-0.014,0.01-0.021c0-0.001,0.001-0.001,0.001-0.002 c0.004-0.007,0.008-0.015,0.011-0.022c0-0.001,0.001-0.001,0.001-0.002c0.004-0.008,0.007-0.015,0.011-0.023c0,0,0-0.001,0-0.001 c0.004-0.008,0.008-0.015,0.012-0.023l0-0.001c0.604-1.214,0.941-2.583,0.936-4.032v-87.033c0.012-0.52-0.021-1.045-0.102-1.571 c-0.183-1.208-0.606-2.336-1.219-3.336c-0.518-0.849-1.166-1.591-1.907-2.209c-1.336-1.118-3-1.855-4.827-2.046 c-0.574-0.061-1.158-0.067-1.745-0.014c-0.801,0.07-1.572,0.246-2.299,0.513l-75.085,25.066c-4.714,1.574-7.261,6.672-5.687,11.387 c1.574,4.714,6.672,7.259,11.386,5.687l63.485-21.193v65.814l-51.79,0.187c-4.958,0.018-8.968,4.042-8.968,9v83.082h-15.318 c-4.971,0-9,4.029-9,9s4.029,9,9,9h24.132c0.062,0.001,0.124,0.002,0.186,0.002c2.933,0,5.537-1.402,7.18-3.573 c1.143-1.509,1.821-3.39,1.821-5.429c0-0.055,0-0.11-0.001-0.166V275.556z M72.611,289.737H22.154v-82.306c0-4.971-4.029-9-9-9 s-9,4.029-9,9v91.141c-0.001,0.055-0.001,0.11-0.001,0.166v59.933c0,4.971,4.029,9,9,9s9-4.029,9-9v-50.933h41.458v50.933 c0,4.971,4.029,9,9,9s9-4.029,9-9v-59.933C81.611,293.767,77.582,289.737,72.611,289.737z M203.861,349.667h-11.025V242.296h55.33 c4.971,0,9-4.029,9-9s-4.029-9-9-9h-64.144c-0.123-0.003-0.249-0.003-0.372,0h-64.144c-4.971,0-9,4.029-9,9s4.029,9,9,9h55.33 v107.371h-11.025c-4.971,0-9,4.029-9,9s4.029,9,9,9h40.05c4.971,0,9-4.029,9-9S208.832,349.667,203.861,349.667z"></path><g></g><g></g><g></g><g></g><g></g><g></g><g></g><g></g><g></g><g></g><g></g><g></g><g></g><g></g><g></g></svg>