<svg width="82" height="90" viewBox="0 0 82 90" fill="none" xmlns="http://www.w3.org/2000/svg">
<path d="M80.3741 15.877L37.8654 0.109749C37.3257 -0.090466 36.7226 -0.0136496 36.2503 0.314885C35.7778 0.64342 35.4962 1.18254 35.4962 1.75787V23.39L1.04414 38.6934C0.409218 38.9753 0 39.605 0 40.2998V88.2422C0 89.213 0.786972 90 1.75781 90H79.763C80.7338 90 81.5208 89.213 81.5208 88.2422V17.5251C81.5208 16.79 81.0634 16.1326 80.3741 15.877ZM3.51562 79.6736H35.4962V86.4844H3.51562V79.6736ZM25.9813 76.1579H13.0303V65.7503H25.9813V76.1579ZM53.9739 86.4844V70.2315H63.0428V86.4844H53.9739ZM78.0051 86.4844H74.1601V76.2571C74.1601 75.2862 73.3731 74.4993 72.4023 74.4993C71.4315 74.4993 70.6445 75.2862 70.6445 76.2571V86.4844H66.5585V68.4737C66.5585 67.5028 65.7715 66.7159 64.8006 66.7159H52.2161C51.2453 66.7159 50.4583 67.5028 50.4583 68.4737V86.4844H46.3719V76.2571C46.3719 75.2862 45.585 74.4993 44.6141 74.4993C43.6433 74.4993 42.8563 75.2862 42.8563 76.2571V86.4844H39.0118V59.9122C39.0118 58.9414 38.2248 58.1544 37.254 58.1544C36.2831 58.1544 35.4962 58.9414 35.4962 59.9122V76.1579H29.4971V63.9925C29.4971 63.0216 28.7101 62.2347 27.7393 62.2347H11.2725C10.3017 62.2347 9.51468 63.0216 9.51468 63.9925V76.1579H3.51562V41.4424L35.4962 27.237V44.0195C35.4962 44.9904 36.2831 45.7773 37.254 45.7773C38.2248 45.7773 39.0118 44.9904 39.0118 44.0195V4.28473L78.0051 18.7478V86.4844Z" fill="#BE8553"/>
</svg>
