<svg width="50" height="47" viewBox="0 0 50 47" fill="none" xmlns="http://www.w3.org/2000/svg">
<path d="M25.9766 38.1333C25.9766 38.6727 25.5394 39.1099 25 39.1099C24.4606 39.1099 24.0234 38.6727 24.0234 38.1333C24.0234 37.5939 24.4606 37.1567 25 37.1567C25.5394 37.1567 25.9766 37.5939 25.9766 38.1333Z" fill="#32343B"/>
<path d="M46.7773 29.3442C46.7773 26.1132 44.149 23.4849 40.918 23.4849C37.6869 23.4849 35.0586 26.1132 35.0586 29.3442C35.0586 32.5753 37.6869 35.2036 40.918 35.2036C44.149 35.2036 46.7773 32.5753 46.7773 29.3442ZM40.918 33.2505C38.7642 33.2505 37.0117 31.498 37.0117 29.3442C37.0117 27.1905 38.7642 25.438 40.918 25.438C43.0717 25.438 44.8242 27.1905 44.8242 29.3442C44.8242 31.498 43.0717 33.2505 40.918 33.2505Z" fill="#32343B"/>
<path d="M40.918 35.2036C38.4571 35.2036 36.0031 36.2252 34.3315 37.8815C32.1312 34.99 28.7384 33.2505 25 33.2505C21.4199 33.2505 17.9508 34.8839 15.6689 37.8815C13.9969 36.2256 11.5433 35.2036 9.08203 35.2036C4.15916 35.2036 0 39.2285 0 43.9927V45.9458C0 46.4852 0.437164 46.9224 0.976562 46.9224H49.0234C49.5628 46.9224 50 46.4852 50 45.9458V43.9927C50 39.2285 45.8408 35.2036 40.918 35.2036ZM1.95312 43.9927C1.95312 40.2871 5.21774 37.1567 9.08203 37.1567C11.1965 37.1567 13.2935 38.0936 14.5916 39.5829C13.7333 41.2408 13.2812 43.0886 13.2812 44.9692H1.95312V43.9927ZM25 35.2036C30.434 35.2036 34.7656 39.6126 34.7656 44.9692H15.2344C15.2344 39.5413 19.6545 35.2036 25 35.2036ZM48.0469 44.9692H36.7188C36.7188 43.0886 36.2667 41.2408 35.4084 39.5829C36.7065 38.0936 38.8035 37.1567 40.918 37.1567C44.7823 37.1567 48.0469 40.2871 48.0469 43.9927V44.9692Z" fill="#32343B"/>
<path d="M14.9414 29.3442C14.9414 26.1132 12.3131 23.4849 9.08203 23.4849C5.85098 23.4849 3.22266 26.1132 3.22266 29.3442C3.22266 32.5753 5.85098 35.2036 9.08203 35.2036C12.3131 35.2036 14.9414 32.5753 14.9414 29.3442ZM9.08203 33.2505C6.92825 33.2505 5.17578 31.498 5.17578 29.3442C5.17578 27.1905 6.92825 25.438 9.08203 25.438C11.2358 25.438 12.9883 27.1905 12.9883 29.3442C12.9883 31.498 11.2358 33.2505 9.08203 33.2505Z" fill="#32343B"/>
<path d="M32.8125 25.438C32.8125 21.1301 29.3079 17.6255 25 17.6255C20.6921 17.6255 17.1875 21.1301 17.1875 25.438C17.1875 29.7459 20.6921 33.2505 25 33.2505C29.3079 33.2505 32.8125 29.7459 32.8125 25.438ZM25 31.2974C21.769 31.2974 19.1406 28.669 19.1406 25.438C19.1406 22.2069 21.769 19.5786 25 19.5786C28.231 19.5786 30.8594 22.2069 30.8594 25.438C30.8594 28.669 28.231 31.2974 25 31.2974Z" fill="#32343B"/>
<path d="M32.7287 5.72707C32.6139 5.37344 32.3083 5.11595 31.9402 5.06254L27.728 4.45105L25.842 0.595154C25.6784 0.259842 25.3381 0.0473633 24.965 0.0473633C24.592 0.0473633 24.2517 0.259842 24.0877 0.594772L22.2021 4.45105L17.9899 5.06216C17.6217 5.11557 17.3162 5.37344 17.2014 5.72707C17.0865 6.08069 17.1823 6.46864 17.4486 6.72804L20.4988 9.70083L19.779 13.8989C19.716 14.2651 19.8667 14.6355 20.1677 14.8537C20.4667 15.0712 20.865 15.1021 21.1961 14.9281L24.965 12.9464L28.7355 14.9281C29.0643 15.1013 29.463 15.0723 29.7639 14.8537C30.0645 14.6351 30.2152 14.2651 30.1523 13.8985L29.4317 9.70083L32.4815 6.72804C32.7478 6.46864 32.8435 6.08069 32.7287 5.72707ZM27.7002 8.66057C27.4702 8.88487 27.3649 9.20836 27.4194 9.52498L27.8921 12.2788L25.4194 10.9788C25.1348 10.8292 24.7949 10.8292 24.5103 10.9788L22.0384 12.2788L22.5107 9.52498C22.5648 9.20798 22.4595 8.88487 22.2295 8.66057L20.2291 6.71088L22.9928 6.30957C23.3125 6.26341 23.5883 6.062 23.7298 5.77208L24.965 3.24675L26.1999 5.77208C26.3418 6.06238 26.6176 6.26341 26.9369 6.30957L29.701 6.71088L27.7002 8.66057Z" fill="#32343B"/>
<path d="M47.3252 13.0463C47.2104 12.6927 46.9048 12.4352 46.5367 12.3818L43.6829 11.9671L42.4069 9.38078C42.2425 9.04738 41.9034 8.83643 41.5314 8.83643C41.5314 8.83643 41.5314 8.83643 41.531 8.83643C41.1595 8.83643 40.82 9.04738 40.6556 9.38078L39.3788 11.9671L36.5246 12.3818C36.1569 12.4352 35.8513 12.6927 35.7365 13.0463C35.6213 13.3999 35.7171 13.7879 35.9833 14.0473L38.0482 16.0611L37.5607 18.903C37.4981 19.2692 37.6484 19.6393 37.9494 19.8579C38.25 20.0764 38.6487 20.1054 38.9775 19.9326L41.531 18.591L44.0838 19.9326C44.4127 20.1054 44.8117 20.0764 45.1123 19.8579C45.4129 19.6396 45.5632 19.2692 45.5006 18.903L45.0131 16.0611L47.0784 14.0473C47.3446 13.7879 47.44 13.3999 47.3252 13.0463ZM43.2824 15.0212C43.052 15.2455 42.9471 15.5686 43.0016 15.8852L43.2412 17.2829L41.9858 16.6234C41.7012 16.4738 41.3613 16.4738 41.0771 16.6234L39.8205 17.2833L40.0605 15.8852C40.1146 15.5686 40.0097 15.2455 39.7797 15.0212L38.7635 14.0301L40.1677 13.8264C40.4858 13.7803 40.7609 13.5804 40.9031 13.2924L41.531 12.0202L42.1586 13.292C42.3008 13.5804 42.5759 13.7803 42.894 13.8264L44.2982 14.0301L43.2824 15.0212Z" fill="#32343B"/>
<path d="M14.1221 13.0463C14.0072 12.6927 13.7017 12.4352 13.3336 12.3818L10.4798 11.9671L9.20377 9.38078C9.03936 9.04738 8.70023 8.83643 8.3283 8.83643C7.95637 8.83643 7.61686 9.04738 7.45245 9.38078L6.17567 11.9671L3.32151 12.3818C2.95377 12.4352 2.64822 12.6927 2.53339 13.0463C2.41819 13.3999 2.51394 13.7879 2.78021 14.0473L4.8451 16.0611L4.35796 18.903C4.29502 19.2692 4.4457 19.6393 4.7463 19.8578C5.0469 20.0764 5.44553 20.1054 5.77474 19.9326L8.32792 18.591L10.8807 19.9326C11.2118 20.1066 11.6101 20.0753 11.9092 19.8578C12.2098 19.6396 12.3604 19.2692 12.2975 18.903L11.81 16.0611L13.8753 14.0473C14.1415 13.7879 14.2369 13.3999 14.1221 13.0463ZM10.0789 15.0212C9.84884 15.2455 9.74393 15.5686 9.7981 15.8852L10.038 17.2829L8.78225 16.6234C8.49805 16.4738 8.15816 16.4738 7.87397 16.6234L6.61703 17.2833L6.85697 15.8852C6.91152 15.5686 6.80624 15.2455 6.57621 15.0212L5.55998 14.0301L6.96455 13.8264C7.28231 13.7803 7.55735 13.5804 7.69964 13.2924L8.32754 12.0202L8.95506 13.292C9.09734 13.5804 9.37238 13.7803 9.69053 13.8264L11.0947 14.0301L10.0789 15.0212Z" fill="#32343B"/>
<path d="M29.2791 38.4355C28.8282 38.1391 28.2228 38.2646 27.9267 38.7155C27.6303 39.166 27.7558 39.7714 28.2067 40.0678C29.1097 40.661 29.8314 41.4881 30.2938 42.4593C30.5249 42.9457 31.1071 43.1536 31.595 42.9212C32.0821 42.6897 32.2889 42.1068 32.0573 41.62C31.4416 40.3261 30.4807 39.2248 29.2791 38.4355Z" fill="#32343B"/>
</svg>
