<svg width="50" height="51" viewBox="0 0 50 51" fill="#595A60" xmlns="http://www.w3.org/2000/svg">
<path d="M42.6776 7.36973C37.9559 2.64785 31.6777 0.0473633 25 0.0473633C18.3223 0.0473633 12.0441 2.64785 7.32236 7.36973C2.60039 12.0915 0 18.3696 0 25.0474C0 31.7251 2.60039 38.0032 7.32236 42.725C12.0441 47.4469 18.3223 50.0474 25 50.0474C31.6777 50.0474 37.9559 47.4469 42.6776 42.725C47.3996 38.0032 50 31.7251 50 25.0474C50 18.3696 47.3996 12.0915 42.6776 7.36973ZM25 47.0712C12.8561 47.0712 2.97617 37.1913 2.97617 25.0474C2.97617 12.9034 12.8561 3.02354 25 3.02354C37.1439 3.02354 47.0238 12.9034 47.0238 25.0474C47.0238 37.1913 37.1439 47.0712 25 47.0712Z" fill="#32343B"/>
<path d="M19.592 18.4454C17.1552 16.0083 13.1901 16.0085 10.7532 18.4454C10.1721 19.0264 10.1721 19.9687 10.7532 20.5499C11.3345 21.1309 12.2768 21.1309 12.8578 20.5499C14.1344 19.2734 16.2114 19.2735 17.4877 20.5499C17.7783 20.8405 18.1591 20.9858 18.5399 20.9858C18.9206 20.9858 19.3016 20.8405 19.592 20.5499C20.1732 19.9687 20.1732 19.0265 19.592 18.4454Z" fill="#32343B"/>
<path d="M39.2463 18.4454C36.8095 16.0085 32.8444 16.0083 30.4075 18.4454C29.8264 19.0264 29.8264 19.9687 30.4075 20.5499C30.9888 21.1309 31.9311 21.1309 32.5121 20.5499C33.7885 19.2734 35.8655 19.2733 37.142 20.5499C37.4326 20.8405 37.8134 20.9858 38.1942 20.9858C38.5749 20.9858 38.9559 20.8405 39.2463 20.5499C39.8275 19.9687 39.8275 19.0265 39.2463 18.4454Z" fill="#32343B"/>
<path d="M38.1943 26.1387H11.8055C10.9836 26.1387 10.3174 26.805 10.3174 27.6268C10.3174 35.7227 16.904 42.3093 24.9999 42.3093C33.0958 42.3093 39.6824 35.7227 39.6824 27.6268C39.6824 26.8049 39.0162 26.1387 38.1943 26.1387ZM24.9999 39.3331C19.0489 39.3331 14.1208 34.8699 13.3877 29.1148H36.6122C35.879 34.8699 30.9509 39.3331 24.9999 39.3331Z" fill="#32343B"/>
</svg>
