<svg width="50" height="50" viewBox="0 0 50 50" fill="none" xmlns="http://www.w3.org/2000/svg">
<path d="M20.9697 46.7624C21.7017 48.3465 22.7229 49.9059 24.5706 49.8421C25.8119 49.8051 26.7428 49.0477 26.851 47.3201C26.9087 46.4105 26.981 45.2807 34.8835 44.6644C36.0786 45.4405 36.8944 47.8219 38.6722 48.9864C41.435 50.7996 45.1363 48.7454 42.6136 43.58C41.4219 41.1477 41.4849 40.5403 43.432 38.4015C44.3119 37.4334 45.2214 36.4326 45.4251 35.0391C45.8176 32.256 43.4396 30.6514 46.2724 29.1151C46.7579 28.8522 47.3088 28.5536 47.7344 28.0604C48.5221 27.1438 48.5924 26.0978 49.2039 22.9313C49.8635 19.4998 49.8635 19.4998 49.7321 18.9253C49.5657 18.1807 48.9692 17.6122 48.2853 17.5431C47.1174 17.4086 46.6099 18.4191 46.1174 19.4731C45.1373 21.3936 41.6701 21.5813 39.6358 25.9153C39.2573 26.7439 38.8786 27.5768 38.3767 27.4358C37.7663 27.2515 38.0809 26.1081 38.2696 25.5073C38.7502 23.9797 36.131 21.1472 33.335 25.3554C33.2391 25.501 32.8985 26.0452 32.7218 26.0613C32.6762 26.0499 32.557 25.92 32.5327 25.7475C32.4027 24.8376 33.5961 24.0322 32.642 22.4345C32.0037 21.3653 30.5706 20.547 29.0737 20.398C26.9932 20.1992 24.428 21.087 21.3682 20.4676C23.738 16.8942 26.2081 12.5111 26.2081 9.76602C26.2081 4.40742 21.848 0.0473633 16.4895 0.0473633C11.1264 0.0473633 6.76322 4.40752 6.76322 9.76602C6.76322 12.0219 8.43295 15.3839 10.3444 18.4937C8.34252 18.491 5.86566 18.5065 4.09916 17.3479C3.83393 17.1747 3.49047 17.1793 3.22836 17.3594C2.96772 17.5395 2.84311 17.8608 2.91303 18.1701C3.65629 21.458 0.343302 24.3913 0.0263102 28.1395C-0.146932 30.1395 0.568107 32.0521 1.21098 33.4958C6.66733 45.7198 16.985 38.1437 20.9697 46.7624ZM16.4895 1.60361C20.9902 1.60361 24.652 5.26543 24.652 9.76611C24.652 13.314 19.2311 21.0593 16.4895 24.607C13.7449 21.06 8.31938 13.3139 8.31938 9.76602C8.31938 5.26533 11.9842 1.60361 16.4895 1.60361ZM1.57641 28.2719C1.82602 25.3239 4.49418 22.6149 4.57865 19.3237C6.68012 20.1282 9.02045 20.0622 11.332 20.0481C13.5166 23.3884 15.7004 26.1256 15.8825 26.3525C16.0306 26.5364 16.254 26.6436 16.4896 26.6436C16.7259 26.6436 16.9494 26.5364 17.0967 26.3525C17.2448 26.168 18.7168 24.3215 20.4352 21.8424C25.4537 23.1438 29.6799 20.5114 31.3062 23.2325C31.7768 24.0187 30.7874 24.5199 30.9916 25.9681C31.1041 26.747 31.6657 27.4072 32.3571 27.5744C34.5412 28.09 34.8083 24.5646 36.3539 24.7052C36.4884 24.7166 36.7575 24.9666 36.7848 25.0402C36.61 25.5972 36.3927 26.2902 36.4741 27.0228C36.6882 28.9882 38.8367 29.7494 40.189 28.1192C40.5552 27.6756 40.7716 27.1684 41.0409 26.5843C42.9555 22.5056 46.2062 22.9027 47.6501 19.8815C47.7641 19.6452 48.0004 19.1544 48.1068 19.0867C48.4327 19.2553 48.0473 20.7049 47.6759 22.6384C46.8022 26.4693 47.3499 26.7596 45.5308 27.7478C41.6285 29.8617 44.1636 32.8417 43.8849 34.8176C43.5976 36.7836 40.5652 38.1879 40.2854 40.8289C40.0396 43.2997 43.1404 46.4029 41.4996 47.7999C39.1634 49.7859 36.9522 42.9358 35.002 43.0948C23.3704 43.9699 25.8612 46.4504 25.1823 47.9132C24.9109 48.4896 23.6619 48.5464 22.7743 46.917C22.6368 46.6609 22.5121 46.3904 22.3822 46.1101C21.5037 44.2097 20.3009 41.6071 14.0738 40.3449C7.74799 39.0727 5.27006 38.7728 2.63246 32.8633C2.06576 31.5901 1.43432 29.9192 1.57641 28.2719Z" fill="#32343B"/>
<path d="M20.7841 9.76621C20.7841 7.40225 18.8578 5.479 16.4894 5.479C14.1209 5.479 12.1938 7.40225 12.1938 9.76621C12.1938 12.1347 14.1209 14.0617 16.4894 14.0617C18.8578 14.0617 20.7841 12.1348 20.7841 9.76621ZM13.75 9.76621C13.75 8.26016 14.9787 7.03525 16.4894 7.03525C17.9992 7.03525 19.2279 8.26016 19.2279 9.76621C19.2279 11.2769 17.9992 12.5056 16.4894 12.5056C14.9787 12.5056 13.75 11.2769 13.75 9.76621Z" fill="#32343B"/>
</svg>
